<svg width="85" height="85" viewBox="0 0 85 85" fill="none" xmlns="http://www.w3.org/2000/svg">
<circle cx="42.4221" cy="42.3578" r="41.7432" fill="#3BADE2" fill-opacity="0.1"/>
<path fill-rule="evenodd" clip-rule="evenodd" d="M41.4 32.107C40.539 32.107 39.8065 32.7053 39.6009 33.5117H46.5145C46.3089 32.7053 45.5764 32.107 44.7154 32.107H41.4ZM48.4677 33.5117H51.0121C53.7107 33.5117 55.9082 35.7358 55.9082 38.4672C55.9082 38.4672 55.8311 39.6235 55.8054 41.2337C55.8028 41.3612 55.7411 41.486 55.6396 41.5615C55.0215 42.018 54.4561 42.3952 54.4047 42.4212C52.2715 43.8519 49.7926 44.8586 47.1519 45.3594C46.9797 45.3932 46.81 45.3034 46.7227 45.15C45.9825 43.8675 44.5998 43.0325 43.0577 43.0325C41.5259 43.0325 40.1304 43.8584 39.3683 45.1422C39.2797 45.293 39.1126 45.3802 38.9417 45.3477C36.3228 44.8456 33.8439 43.8402 31.7236 42.4342L30.49 41.5758C30.3871 41.5107 30.3229 41.3937 30.3229 41.2636C30.2843 40.6003 30.2201 38.4672 30.2201 38.4672C30.2201 35.7358 32.4175 33.5117 35.1161 33.5117H37.6477C37.8918 31.6257 39.4724 30.156 41.4 30.156H44.7154C46.643 30.156 48.2236 31.6257 48.4677 33.5117ZM55.4713 44.0471L55.4198 44.0731C52.8241 45.816 49.7014 46.9736 46.4245 47.4549C45.9619 47.5199 45.4993 47.2207 45.3708 46.7525C45.0881 45.686 44.1757 44.9836 43.0834 44.9836H43.0706H43.0449C41.9526 44.9836 41.0402 45.686 40.7575 46.7525C40.629 47.2207 40.1664 47.5199 39.7037 47.4549C36.4269 46.9736 33.3042 45.816 30.7084 44.0731C30.6956 44.0601 30.5671 43.9821 30.4643 44.0471C30.3486 44.1122 30.3486 44.2682 30.3486 44.2682L30.4386 50.9016C30.4386 53.633 32.6231 55.8441 35.3217 55.8441H50.7937C53.4923 55.8441 55.6769 53.633 55.6769 50.9016L55.7797 44.2682C55.7797 44.2682 55.7797 44.1122 55.664 44.0471C55.5998 44.0081 55.5227 44.0211 55.4713 44.0471ZM44.0215 49.4969C44.0215 50.0432 43.5974 50.4724 43.0577 50.4724C42.5308 50.4724 42.0939 50.0432 42.0939 49.4969V47.819C42.0939 47.2858 42.5308 46.8435 43.0577 46.8435C43.5974 46.8435 44.0215 47.2858 44.0215 47.819V49.4969Z" fill="#3BADE2"/>
</svg>
