<svg width="87" height="87" viewBox="0 0 87 87" fill="none" xmlns="http://www.w3.org/2000/svg">
<rect width="86.1538" height="86.9822" rx="43.0769" fill="#3BADE2"/>
<path d="M57.6956 36.9657C58.6141 37.8733 59.0092 39.0162 59.1939 40.3735C59.3718 41.6808 59.3718 43.3431 59.3717 45.4053V45.5708C59.3718 47.6331 59.3718 49.2953 59.1939 50.6027C59.0092 51.96 58.6141 53.1028 57.6956 54.0105C56.777 54.9181 55.6204 55.3085 54.2468 55.491C52.9237 55.6668 51.2415 55.6668 49.1545 55.6667H41.3566C39.2695 55.6668 37.5873 55.6668 36.2643 55.491C34.8906 55.3085 33.734 54.9181 32.8155 54.0105C32.2582 53.4598 31.8936 52.8226 31.6517 52.1035C33.0315 52.2743 34.7386 52.2742 36.7109 52.2741H44.6426C46.6719 52.2742 48.4204 52.2743 49.8205 52.0883C51.3211 51.8889 52.7594 51.4394 53.9261 50.2866C55.0928 49.1337 55.5477 47.7125 55.7495 46.2297C55.9377 44.8462 55.9376 43.1185 55.9375 41.1134V40.8156C55.9376 38.8662 55.9377 37.1791 55.7648 35.8155C56.4929 36.0544 57.1381 36.4148 57.6956 36.9657Z" fill="white"/>
<path d="M40.6767 38.3255C39.2018 38.3255 38.0061 39.507 38.0061 40.9644C38.0061 42.4219 39.2018 43.6034 40.6767 43.6034C42.1517 43.6034 43.3474 42.4219 43.3474 40.9644C43.3474 39.507 42.1517 38.3255 40.6767 38.3255Z" fill="white"/>
<path fill-rule="evenodd" clip-rule="evenodd" d="M29.046 33.2418C27.7051 34.5668 27.7051 36.6993 27.7051 40.9644C27.7051 45.2296 27.7051 47.3621 29.046 48.6871C30.3869 50.0121 32.5451 50.0121 36.8615 50.0121H44.4919C48.8083 50.0121 50.9665 50.0121 52.3075 48.6871C53.6484 47.3621 53.6484 45.2296 53.6484 40.9644C53.6484 36.6993 53.6484 34.5668 52.3075 33.2418C50.9665 31.9167 48.8083 31.9167 44.4919 31.9167H36.8615C32.5451 31.9167 30.3869 31.9167 29.046 33.2418ZM35.717 40.9644C35.717 38.2578 37.9375 36.0636 40.6767 36.0636C43.4159 36.0636 45.6365 38.2578 45.6365 40.9644C45.6365 43.6711 43.4159 45.8653 40.6767 45.8653C37.9375 45.8653 35.717 43.6711 35.717 40.9644ZM49.0702 45.1113C48.438 45.1113 47.9256 44.605 47.9256 43.9803V37.9485C47.9256 37.3239 48.438 36.8176 49.0702 36.8176C49.7023 36.8176 50.2147 37.3239 50.2147 37.9485V43.9803C50.2147 44.605 49.7023 45.1113 49.0702 45.1113ZM31.1388 43.9803C31.1388 44.605 31.6512 45.1113 32.2833 45.1113C32.9154 45.1113 33.4279 44.605 33.4279 43.9803L33.4279 37.9485C33.4279 37.3239 32.9154 36.8176 32.2833 36.8176C31.6512 36.8176 31.1388 37.3239 31.1388 37.9485L31.1388 43.9803Z" fill="white"/>
</svg>
