<svg width="105" height="106" viewBox="0 0 105 106" fill="none" xmlns="http://www.w3.org/2000/svg">
<rect width="105" height="106.01" rx="52.5" fill="#3BADE2" fill-opacity="0.1"/>
<path fill-rule="evenodd" clip-rule="evenodd" d="M68.4041 55.8969C69.0599 56.2452 69.5657 56.7952 69.9217 57.3452C70.6149 58.4819 70.5587 59.8752 69.8842 61.1035L68.5727 63.3035C67.8795 64.4769 66.5867 65.2102 65.2565 65.2102C64.6007 65.2102 63.87 65.0269 63.2705 64.6602C62.7833 64.3485 62.2213 64.2385 61.6217 64.2385C59.7669 64.2385 58.2118 65.7602 58.1556 67.5752C58.1556 69.6835 56.4319 71.3335 54.2772 71.3335H51.7292C49.5558 71.3335 47.8321 69.6835 47.8321 67.5752C47.7946 65.7602 46.2395 64.2385 44.3847 64.2385C43.7664 64.2385 43.2043 64.3485 42.7359 64.6602C42.1364 65.0269 41.3869 65.2102 40.7499 65.2102C39.4009 65.2102 38.1082 64.4769 37.4149 63.3035L36.1222 61.1035C35.4289 59.9119 35.3915 58.4819 36.0847 57.3452C36.3845 56.7952 36.9465 56.2452 37.5836 55.8969C38.1082 55.6402 38.4454 55.2185 38.7639 54.7235C39.7007 53.1469 39.1386 51.0752 37.5461 50.1402C35.6912 49.0952 35.0917 46.7669 36.1596 44.9519L37.4149 42.7885C38.5016 40.9735 40.8249 40.3319 42.6985 41.3952C44.3285 42.2752 46.4456 41.6885 47.4012 40.1302C47.7009 39.6169 47.8696 39.0669 47.8321 38.5169C47.7946 37.8019 48.0007 37.1235 48.3567 36.5735C49.0499 35.4369 50.3052 34.7035 51.673 34.6669H54.3147C55.7012 34.6669 56.9565 35.4369 57.6497 36.5735C57.9869 37.1235 58.2118 37.8019 58.1556 38.5169C58.1181 39.0669 58.2867 39.6169 58.5865 40.1302C59.542 41.6885 61.6592 42.2752 63.3079 41.3952C65.1628 40.3319 67.5048 40.9735 68.5727 42.7885L69.828 44.9519C70.9147 46.7669 70.3152 49.0952 68.4416 50.1402C66.849 51.0752 66.2869 53.1469 67.2425 54.7235C67.5422 55.2185 67.8795 55.6402 68.4041 55.8969ZM47.7009 53.0185C47.7009 55.8969 50.0804 58.1885 53.0219 58.1885C55.9635 58.1885 58.2867 55.8969 58.2867 53.0185C58.2867 50.1402 55.9635 47.8302 53.0219 47.8302C50.0804 47.8302 47.7009 50.1402 47.7009 53.0185Z" fill="#3BADE2"/>
</svg>
