<svg width="105" height="106" viewBox="0 0 105 106" fill="none" xmlns="http://www.w3.org/2000/svg">
<rect width="105" height="106.01" rx="52.5" fill="white"/>
<path fill-rule="evenodd" clip-rule="evenodd" d="M38.833 50.1963C38.833 42.5298 45.2395 36.3333 52.9888 36.3333C60.7599 36.3333 67.1663 42.5298 67.1663 50.1963C67.1663 54.0595 65.7614 57.6461 63.4488 60.686C60.8977 64.0392 57.7533 66.9608 54.2139 69.2541C53.4039 69.784 52.6728 69.824 51.7838 69.2541C48.2242 66.9608 45.0798 64.0392 42.5505 60.686C40.2363 57.6461 38.833 54.0595 38.833 50.1963ZM48.3234 50.6279C48.3234 53.1962 50.4191 55.2161 52.9888 55.2161C55.5601 55.2161 57.676 53.1962 57.676 50.6279C57.676 48.0797 55.5601 45.9614 52.9888 45.9614C50.4191 45.9614 48.3234 48.0797 48.3234 50.6279Z" fill="#3BADE2"/>
</svg>
