<svg width="105" height="106" viewBox="0 0 105 106" fill="none" xmlns="http://www.w3.org/2000/svg">
<rect width="105" height="106.01" rx="52.5" fill="#3BADE2"/>
<path fill-rule="evenodd" clip-rule="evenodd" d="M60.8207 38.75C62.9439 38.75 64.9864 39.5892 66.489 41.0949C67.9932 42.5975 68.8339 44.6242 68.8339 46.7458V59.2542C68.8339 63.6717 65.2397 67.25 60.8207 67.25H45.1789C40.7598 67.25 37.1672 63.6717 37.1672 59.2542V46.7458C37.1672 42.3283 40.744 38.75 45.1789 38.75H60.8207ZM63.3397 49.105L63.4664 48.9783C63.8448 48.5192 63.8448 47.8542 63.449 47.395C63.2289 47.1591 62.9265 47.015 62.6114 46.9833C62.2789 46.9659 61.9622 47.0783 61.7232 47.3L54.5839 53C53.6656 53.7616 52.3498 53.7616 51.4172 53L44.2922 47.3C43.7998 46.9358 43.119 46.9833 42.7089 47.4108C42.2814 47.8383 42.2339 48.5192 42.5965 48.9942L42.8039 49.2L50.0081 54.8208C50.8947 55.5175 51.9698 55.8975 53.0956 55.8975C54.2182 55.8975 55.3122 55.5175 56.1973 54.8208L63.3397 49.105Z" fill="white"/>
</svg>
