<svg width="105" height="106" viewBox="0 0 105 106" fill="none" xmlns="http://www.w3.org/2000/svg">
<rect width="105" height="106.01" rx="52.5" fill="white"/>
<path fill-rule="evenodd" clip-rule="evenodd" d="M61.2323 38C63.4673 38 65.6173 38.8833 67.199 40.4683C68.7823 42.05 69.6673 44.1833 69.6673 46.4167V59.5833C69.6673 64.2333 65.884 68 61.2323 68H44.7673C40.1157 68 36.334 64.2333 36.334 59.5833V46.4167C36.334 41.7667 40.099 38 44.7673 38H61.2323ZM63.884 48.9L64.0173 48.7667C64.4157 48.2833 64.4157 47.5833 63.999 47.1C63.7673 46.8517 63.449 46.7 63.1173 46.6667C62.7673 46.6483 62.434 46.7667 62.1823 47L54.6673 53C53.7007 53.8017 52.3157 53.8017 51.334 53L43.834 47C43.3157 46.6167 42.599 46.6667 42.1673 47.1167C41.7173 47.5667 41.6673 48.2833 42.049 48.7833L42.2673 49L49.8507 54.9167C50.784 55.65 51.9157 56.05 53.1007 56.05C54.2823 56.05 55.434 55.65 56.3657 54.9167L63.884 48.9Z" fill="#3BADE2"/>
</svg>
