<svg width="105" height="106" viewBox="0 0 105 106" fill="none" xmlns="http://www.w3.org/2000/svg">
<rect width="105" height="106.01" rx="52.5" fill="#3BADE2" fill-opacity="0.1"/>
<path d="M71.6279 45.06C72.8366 46.2543 73.3564 47.758 73.5994 49.5439C73.8335 51.2641 73.8335 53.4513 73.8334 56.1648V56.3825C73.8335 59.096 73.8335 61.2832 73.5994 63.0034C73.3564 64.7893 72.8366 66.2931 71.6279 67.4873C70.4193 68.6816 68.8975 69.1953 67.0901 69.4354C65.3492 69.6667 63.1357 69.6667 60.3896 69.6666H50.1293C47.3831 69.6667 45.1697 69.6667 43.4288 69.4354C41.6214 69.1953 40.0996 68.6816 38.891 67.4873C38.1577 66.7628 37.6779 65.9244 37.3597 64.9781C39.1752 65.2028 41.4213 65.2027 44.0165 65.2026H54.453C57.1231 65.2027 59.4237 65.2028 61.266 64.9581C63.2404 64.6958 65.133 64.1043 66.6681 62.5874C68.2032 61.0706 68.8018 59.2005 69.0673 57.2495C69.315 55.4291 69.3148 53.1558 69.3147 50.5174V50.1256C69.3148 47.5606 69.315 45.3407 69.0874 43.5465C70.0455 43.861 70.8944 44.3351 71.6279 45.06Z" fill="#3BADE2"/>
<path d="M49.2347 46.8492C47.294 46.8492 45.7207 48.4038 45.7207 50.3215C45.7207 52.2392 47.294 53.7937 49.2347 53.7937C51.1755 53.7937 52.7487 52.2392 52.7487 50.3215C52.7487 48.4038 51.1755 46.8492 49.2347 46.8492Z" fill="#3BADE2"/>
<path fill-rule="evenodd" clip-rule="evenodd" d="M33.9311 40.1601C32.1667 41.9035 32.1667 44.7095 32.1667 50.3215C32.1667 55.9335 32.1667 58.7395 33.9311 60.4829C35.6955 62.2263 38.5353 62.2263 44.2147 62.2263H54.2547C59.9342 62.2263 62.7739 62.2263 64.5383 60.4829C66.3027 58.7395 66.3027 55.9335 66.3027 50.3215C66.3027 44.7095 66.3027 41.9035 64.5383 40.1601C62.7739 38.4166 59.9342 38.4166 54.2547 38.4166H44.2147C38.5353 38.4166 35.6955 38.4166 33.9311 40.1601ZM42.7087 50.3215C42.7087 46.7601 45.6305 43.873 49.2347 43.873C52.8389 43.873 55.7607 46.7601 55.7607 50.3215C55.7607 53.8829 52.8389 56.77 49.2347 56.77C45.6305 56.77 42.7087 53.8829 42.7087 50.3215ZM60.2787 55.7779C59.447 55.7779 58.7727 55.1116 58.7727 54.2898V46.3532C58.7727 45.5313 59.447 44.8651 60.2787 44.8651C61.1104 44.8651 61.7847 45.5313 61.7847 46.3532V54.2898C61.7847 55.1116 61.1104 55.7779 60.2787 55.7779ZM36.6847 54.2898C36.6847 55.1116 37.359 55.7779 38.1907 55.7779C39.0225 55.7779 39.6967 55.1116 39.6967 54.2898L39.6967 46.3532C39.6967 45.5313 39.0225 44.8651 38.1907 44.8651C37.359 44.8651 36.6847 45.5313 36.6847 46.3532L36.6847 54.2898Z" fill="#3BADE2"/>
</svg>
