<svg width="105" height="106" viewBox="0 0 105 106" fill="none" xmlns="http://www.w3.org/2000/svg">
<rect width="105" height="106.01" rx="52.5" fill="#3BADE2" fill-opacity="0.1"/>
<path d="M50.9167 40.5H57.1667L64.0208 33.625C64.2145 33.4298 64.4449 33.2748 64.6988 33.169C64.9527 33.0632 65.225 33.0088 65.5 33.0088C65.775 33.0088 66.0473 33.0632 66.3012 33.169C66.5551 33.2748 66.7855 33.4298 66.9792 33.625L72.3542 39.0209C72.7422 39.4112 72.96 39.9392 72.96 40.4896C72.96 41.04 72.7422 41.568 72.3542 41.9584L67.5833 46.75H50.9167V50.9167C50.9167 51.4692 50.6972 51.9991 50.3065 52.3898C49.9158 52.7805 49.3859 53 48.8333 53C48.2808 53 47.7509 52.7805 47.3602 52.3898C46.9695 51.9991 46.75 51.4692 46.75 50.9167V44.6667C46.75 43.5616 47.189 42.5018 47.9704 41.7204C48.7518 40.939 49.8116 40.5 50.9167 40.5ZM38.4167 50.9167V59.25L33.6458 64.0209C33.2578 64.4112 33.04 64.9392 33.04 65.4896C33.04 66.04 33.2578 66.568 33.6458 66.9584L39.0208 72.3542C39.2145 72.5495 39.4449 72.7045 39.6988 72.8102C39.9527 72.916 40.225 72.9704 40.5 72.9704C40.775 72.9704 41.0473 72.916 41.3012 72.8102C41.5551 72.7045 41.7855 72.5495 41.9792 72.3542L50.9167 63.4167H59.25C59.8025 63.4167 60.3324 63.1972 60.7231 62.8065C61.1138 62.4158 61.3333 61.8859 61.3333 61.3334V59.25H63.4167C63.9692 59.25 64.4991 59.0305 64.8898 58.6398C65.2805 58.2491 65.5 57.7192 65.5 57.1667V55.0834H67.5833C68.1359 55.0834 68.6658 54.8639 69.0565 54.4732C69.4472 54.0825 69.6667 53.5526 69.6667 53V50.9167H55.0833V53C55.0833 54.1051 54.6443 55.1649 53.8629 55.9463C53.0815 56.7277 52.0217 57.1667 50.9167 57.1667H46.75C45.6449 57.1667 44.5851 56.7277 43.8037 55.9463C43.0223 55.1649 42.5833 54.1051 42.5833 53V46.75L38.4167 50.9167Z" fill="#3BADE2"/>
</svg>
