<svg width="105" height="106" viewBox="0 0 105 106" fill="none" xmlns="http://www.w3.org/2000/svg">
<rect width="105" height="106.01" rx="52.5" fill="#3BADE2"/>
<path d="M50.7673 50.7666C50.1727 51.3581 49.8371 52.1613 49.834 52.9999C49.834 53.8398 50.1676 54.6452 50.7615 55.2391C51.3553 55.833 52.1608 56.1666 53.0007 56.1666C53.8393 56.1635 54.6425 55.8278 55.234 55.2333" stroke="white" stroke-width="2" stroke-linecap="round" stroke-linejoin="round"/>
<path d="M53 43.5C51.1211 43.5 49.2844 44.0572 47.7221 45.101C46.1598 46.1449 44.9422 47.6286 44.2231 49.3645C43.5041 51.1004 43.316 53.0105 43.6825 54.8534C44.0491 56.6962 44.9539 58.3889 46.2825 59.7175C47.6111 61.0461 49.3038 61.9509 51.1466 62.3175C52.9895 62.684 54.8996 62.4959 56.6355 61.7769C58.3714 61.0578 59.8551 59.8402 60.899 58.2779C61.9428 56.7157 62.5 54.8789 62.5 53" stroke="white" stroke-width="2" stroke-linecap="round" stroke-linejoin="round"/>
<path d="M53.0003 37.1666C49.8688 37.1666 46.8076 38.0952 44.2038 39.835C41.6 41.5748 39.5706 44.0476 38.3722 46.9408C37.1739 49.834 36.8603 53.0175 37.4712 56.0889C38.0822 59.1603 39.5901 61.9815 41.8045 64.1958C44.0188 66.4101 46.84 67.9181 49.9114 68.5291C52.9828 69.14 56.1663 68.8264 59.0595 67.6281C61.9527 66.4297 64.4255 64.4003 66.1653 61.7965C67.9051 59.1927 68.8337 56.1315 68.8337 53M58.8753 47.1266L54.5837 51.4166" stroke="white" stroke-width="2" stroke-linecap="round" stroke-linejoin="round"/>
<path d="M67.9004 42.74L62.5004 43.5L63.2604 38.1C63.2659 38.0372 63.2527 37.9743 63.2223 37.9191C63.1919 37.864 63.1458 37.8191 63.0898 37.7903C63.0338 37.7615 62.9705 37.7501 62.9079 37.7574C62.8454 37.7648 62.7865 37.7906 62.7387 37.8316L59.1587 41.3933C58.791 41.7637 58.5205 42.2192 58.3714 42.7193C58.2222 43.2194 58.1989 43.7487 58.3037 44.26L58.8737 47.1266L61.7404 47.695C62.2516 47.7997 62.7809 47.7765 63.281 47.6273C63.7812 47.4781 64.2367 47.2077 64.607 46.84L68.167 43.2616C68.2082 43.2137 68.2341 43.1546 68.2414 43.0919C68.2487 43.0292 68.2371 42.9657 68.2081 42.9097C68.1791 42.8536 68.134 42.8075 68.0785 42.7772C68.0231 42.747 67.9599 42.734 67.897 42.74" stroke="white" stroke-width="2" stroke-linecap="round" stroke-linejoin="round"/>
</svg>
