<svg width="78" height="55" viewBox="0 0 78 55" fill="none" xmlns="http://www.w3.org/2000/svg">
<path d="M39 0.75C28.9575 0.75 21.06 8.37938 19.9558 18.1172C17.8319 18.4594 15.84 19.3696 14.191 20.7512C12.542 22.1329 11.2973 23.9347 10.5885 25.9659C4.59225 27.6941 0 33.042 0 39.75C0 47.8522 6.52275 54.375 14.625 54.375H63.375C71.4772 54.375 78 47.8522 78 39.75C78 35.46 75.9159 31.6185 72.8959 28.9324C72.3304 20.367 65.4981 13.5323 56.901 13.0886C53.9663 5.94919 47.2339 0.75 39 0.75ZM39 5.625C45.7324 5.625 51.1144 9.93937 53.0156 16.0575L53.5519 17.8125H56.0625C62.7778 17.8125 68.25 23.2847 68.25 30V31.2188L69.2396 31.9817C70.434 32.8971 71.4045 34.0722 72.0777 35.418C72.7508 36.7639 73.109 38.2453 73.125 39.75C73.125 45.2977 68.9228 49.5 63.375 49.5H14.625C9.07725 49.5 4.875 45.2977 4.875 39.75C4.875 34.8262 8.40938 31.0042 12.87 30.2291L14.4714 29.9244L14.7761 28.3206C15.5074 25.0373 18.4177 22.6875 21.9375 22.6875H24.375V20.25C24.375 12.0356 30.7856 5.625 39 5.625ZM39 19.2604L37.245 20.9349L27.495 30.6849L31.005 34.1949L36.5625 28.6277V44.625H41.4375V28.6277L46.995 34.1901L50.505 30.6801L40.755 20.9301L39 19.2604Z" fill="#3BADE2"/>
</svg>
