<svg width="87" height="87" viewBox="0 0 87 87" fill="none" xmlns="http://www.w3.org/2000/svg">
<rect x="0.461548" width="86.1538" height="86.9822" rx="43.0769" fill="#3BADE2"/>
<path fill-rule="evenodd" clip-rule="evenodd" d="M49.8909 37.6633C49.8909 40.992 47.2372 43.6611 43.9277 43.6611C40.6183 43.6611 37.9646 40.992 37.9646 37.6633C37.9646 34.3333 40.6183 31.6667 43.9277 31.6667C47.2372 31.6667 49.8909 34.3333 49.8909 37.6633ZM43.9278 54.3334C39.0669 54.3334 34.9164 53.5628 34.9164 50.4803C34.9164 47.3966 39.0403 46.5979 43.9278 46.5979C48.7886 46.5979 52.9391 47.3685 52.9391 50.4522C52.9391 53.5347 48.8152 54.3334 43.9278 54.3334ZM52.4392 37.7715C52.4392 39.4684 51.933 41.0492 51.0451 42.3633C50.9538 42.4985 51.035 42.681 51.1961 42.7091C51.418 42.7473 51.6476 42.769 51.881 42.7754C54.2087 42.8366 56.2979 41.3299 56.8751 39.0614C57.73 35.6918 55.2197 32.6668 52.0231 32.6668C51.6755 32.6668 51.3432 32.7038 51.0197 32.7701C50.9753 32.7803 50.9284 32.8007 50.903 32.8403C50.8726 32.8888 50.8954 32.9538 50.9259 32.9959C51.8861 34.3496 52.4392 36.0006 52.4392 37.7715ZM56.2941 45.1429C57.8582 45.4504 58.8869 46.0781 59.3131 46.9903C59.6734 47.7393 59.6734 48.6081 59.3131 49.3558C58.6611 50.7707 56.5592 51.2249 55.7423 51.3423C55.5736 51.3678 55.4379 51.2211 55.4556 51.0514C55.873 47.1307 52.5533 45.2718 51.6946 44.8443C51.6578 44.8252 51.6502 44.7959 51.654 44.778C51.6565 44.7652 51.6717 44.7448 51.6996 44.741C53.558 44.7065 55.5558 44.9617 56.2941 45.1429ZM36.1192 42.7753C36.3526 42.7689 36.5809 42.7485 36.8042 42.7089C36.9653 42.6809 37.0465 42.4984 36.9551 42.3632C36.0672 41.049 35.5611 39.4682 35.5611 37.7714C35.5611 36.0005 36.1141 34.3495 37.0744 32.9958C37.1048 32.9537 37.1264 32.8886 37.0972 32.8402C37.0718 32.8019 37.0236 32.7802 36.9805 32.77C36.6558 32.7036 36.3234 32.6666 35.9759 32.6666C32.7793 32.6666 30.2689 35.6917 31.1252 39.0612C31.7023 41.3297 33.7915 42.8365 36.1192 42.7753ZM36.3456 44.7772C36.3494 44.7964 36.3418 44.8244 36.3063 44.8448C35.4463 45.2723 32.1266 47.1312 32.544 51.0506C32.5617 51.2216 32.4273 51.367 32.2586 51.3428C31.4417 51.2254 29.3398 50.7712 28.6878 49.3563C28.3262 48.6074 28.3262 47.7398 28.6878 46.9908C29.114 46.0786 30.1415 45.4509 31.7055 45.1421C32.445 44.9622 34.4416 44.7071 36.3012 44.7415C36.3291 44.7453 36.3431 44.7657 36.3456 44.7772Z" fill="white"/>
</svg>
