<svg width="87" height="87" viewBox="0 0 87 87" fill="none" xmlns="http://www.w3.org/2000/svg">
<rect x="0.461548" width="86.1538" height="86.9822" rx="43.0769" fill="#3BADE2"/>
<path fill-rule="evenodd" clip-rule="evenodd" d="M50.1936 30.0509C49.9235 29.6193 49.5256 29.2827 49.0552 29.0879C48.5849 28.8931 48.0655 28.8498 47.5694 28.964L44.0483 29.7728C43.6875 29.8557 43.3125 29.8557 42.9516 29.7728L39.4306 28.964C38.9344 28.8498 38.4151 28.8931 37.9447 29.0879C37.4744 29.2827 37.0765 29.6193 36.8064 30.0509L34.8872 33.1137C34.6914 33.427 34.427 33.6914 34.1137 33.8892L31.0508 35.8084C30.62 36.0782 30.2839 36.4755 30.0892 36.945C29.8944 37.4146 29.8507 37.9331 29.964 38.4286L30.7728 41.9536C30.8554 42.3138 30.8554 42.6881 30.7728 43.0483L29.964 46.5714C29.8502 47.0672 29.8937 47.5862 30.0885 48.0561C30.2833 48.526 30.6197 48.9236 31.0508 49.1936L34.1137 51.1128C34.427 51.3086 34.6914 51.573 34.8892 51.8863L36.8083 54.9491C37.3606 55.8323 38.4142 56.269 39.4306 56.036L42.9516 55.2272C43.3125 55.1443 43.6875 55.1443 44.0483 55.2272L47.5713 56.036C48.0672 56.1498 48.5861 56.1062 49.0561 55.9114C49.526 55.7167 49.9236 55.3803 50.1936 54.9491L52.1127 51.8863C52.3086 51.573 52.5729 51.3086 52.8863 51.1128L55.9511 49.1936C56.3822 48.9232 56.7184 48.5252 56.9129 48.0549C57.1073 47.5846 57.1504 47.0653 57.036 46.5694L56.2291 43.0483C56.1462 42.6875 56.1462 42.3125 56.2291 41.9517L57.0379 38.4286C57.1519 37.933 57.1086 37.4142 56.9142 36.9443C56.7198 36.4743 56.3838 36.0766 55.953 35.8064L52.8882 33.8872C52.5753 33.6911 52.3109 33.4266 52.1147 33.1137L50.1936 30.0509ZM49.2085 38.1329C49.3296 37.9102 49.3596 37.6492 49.2922 37.4048C49.2248 37.1603 49.0652 36.9516 48.847 36.8225C48.6289 36.6933 48.3691 36.6539 48.1224 36.7124C47.8757 36.7709 47.6613 36.9228 47.5243 37.1361L42.4033 45.8037L39.3111 42.8427C39.2194 42.7485 39.1096 42.6738 38.9883 42.6229C38.8671 42.5721 38.7368 42.5461 38.6054 42.5467C38.4739 42.5473 38.3439 42.5743 38.2231 42.6262C38.1023 42.6782 37.9931 42.7539 37.9022 42.8489C37.8113 42.9438 37.7405 43.0562 37.6939 43.1791C37.6474 43.3021 37.626 43.4332 37.6312 43.5646C37.6364 43.6959 37.668 43.8249 37.7241 43.9438C37.7803 44.0627 37.8598 44.1691 37.9579 44.2566L41.9411 48.0734C42.0477 48.1754 42.176 48.2519 42.3163 48.2973C42.4567 48.3427 42.6055 48.3558 42.7516 48.3357C42.8977 48.3155 43.0374 48.2627 43.1602 48.181C43.283 48.0993 43.3858 47.9909 43.4608 47.8639L49.2085 38.1329Z" fill="white"/>
</svg>
