<svg width="105" height="106" viewBox="0 0 105 106" fill="none" xmlns="http://www.w3.org/2000/svg">
<rect width="105" height="106.01" rx="52.5" fill="#3BADE2"/>
<path fill-rule="evenodd" clip-rule="evenodd" d="M46.1707 53C46.1707 56.7333 49.2268 59.7709 53 59.7709C56.7561 59.7709 59.8122 56.7333 59.8122 53C59.8122 49.2497 56.7561 46.2121 53 46.2121C49.2268 46.2121 46.1707 49.2497 46.1707 53ZM63.039 42.5806C66.0268 44.8885 68.5707 48.2655 70.3976 52.4909C70.5341 52.8133 70.5341 53.1867 70.3976 53.4921C66.7439 61.943 60.239 67 53 67H52.9829C45.761 67 39.2561 61.943 35.6024 53.4921C35.4659 53.1867 35.4659 52.8133 35.6024 52.4909C39.2561 44.04 45.761 39 52.9829 39H53C56.6195 39 60.0512 40.2558 63.039 42.5806ZM53.002 57.2217C55.3411 57.2217 57.2533 55.3211 57.2533 52.9963C57.2533 50.6544 55.3411 48.7538 53.002 48.7538C52.7972 48.7538 52.5923 48.7708 52.4045 48.8048C52.3362 50.6714 50.7996 52.1648 48.9045 52.1648H48.8191C48.7679 52.4363 48.7338 52.7078 48.7338 52.9963C48.7338 55.3211 50.646 57.2217 53.002 57.2217Z" fill="white"/>
</svg>
