<svg width="87" height="87" viewBox="0 0 87 87" fill="none" xmlns="http://www.w3.org/2000/svg">
<rect x="0.461548" width="86.1538" height="86.9822" rx="43.0769" fill="#3BADE2"/>
<path fill-rule="evenodd" clip-rule="evenodd" d="M51.6918 38.1757H57.3333C57.3333 33.6461 54.6192 31 50.0207 31H37.9792C33.3807 31 30.6667 33.6461 30.6667 38.118V47.882C30.6667 52.3539 33.3807 55 37.9792 55H50.0207C54.6192 55 57.3333 52.3539 57.3333 47.882V47.4661H51.6918C49.0736 47.4661 46.9511 45.3967 46.9511 42.844C46.9511 40.2913 49.0736 38.222 51.6918 38.222V38.1757ZM51.6918 40.1632H56.3378C56.8876 40.1632 57.3333 40.5978 57.3333 41.1338V44.5079C57.3269 45.0414 56.8849 45.4723 56.3378 45.4786H51.7985C50.473 45.496 49.314 44.6112 49.0133 43.3524C48.8628 42.5711 49.0741 41.7648 49.5908 41.1496C50.1074 40.5345 50.8764 40.1734 51.6918 40.1632ZM51.8933 43.7106H52.3318C52.8948 43.7106 53.3511 43.2657 53.3511 42.7169C53.3511 42.1681 52.8948 41.7232 52.3318 41.7232H51.8933C51.6241 41.7201 51.3648 41.8222 51.1733 42.0067C50.9818 42.1912 50.874 42.4428 50.8741 42.7053C50.874 43.2561 51.3285 43.7043 51.8933 43.7106ZM36.9837 38.1757H44.5096C45.0725 38.1757 45.5289 37.7308 45.5289 37.182C45.5289 36.6332 45.0725 36.1883 44.5096 36.1883H36.9837C36.4254 36.1882 35.9709 36.6261 35.9644 37.1704C35.9644 37.7212 36.4189 38.1694 36.9837 38.1757Z" fill="white"/>
</svg>
